<svg version="1.2" baseProfile="tiny-ps" xmlns="http://www.w3.org/2000/svg" viewBox="0 0 1280 1280" width="1280" height="1280">
	<title>executive</title>
	<style>
		tspan { white-space:pre }
		.shp0 { fill: #000000;stroke: #000000;stroke-width: 3 } 
		.shp1 { fill: #ffffff;stroke: #000000;stroke-width: 3 } 
		.shp2 { fill: #ff0000;stroke: #000000;stroke-width: 3 } 
		.shp3 { fill: none;stroke: #000000;stroke-width: 3 } 
		.shp4 { fill: #0000ff;stroke: #000000;stroke-width: 3 } 
	</style>
	<path id="Shape 6" class="shp0" d="M88.13 561.35L1205.31 561.35L1205.31 1161.89L88.13 1161.89L88.13 561.35Z" />
	<g id="Columns">
		<path id="Column 6" class="shp1" d="M1149.6 1138.21L1149.6 1091.95C1149.6 1091.95 1175.08 1091.95 1175.08 1068.81C1175.08 1045.68 1175.08 629.31 1175.08 606.18C1149.6 606.18 1149.6 583.05 1149.6 583.05L1251.52 583.05C1251.52 583.05 1251.52 606.18 1226.04 606.18C1226.04 629.31 1226.04 1045.68 1226.04 1068.81C1226.04 1091.95 1251.52 1091.95 1251.52 1091.95L1251.52 1138.21L1149.6 1138.21Z" />
		<path id="Column 5" class="shp1" d="M930.82 1138.21L930.82 1091.95C930.82 1091.95 956.3 1091.95 956.3 1068.81C956.3 1045.68 956.3 629.31 956.3 606.18C930.82 606.18 930.82 583.05 930.82 583.05L1032.74 583.05C1032.74 583.05 1032.74 606.18 1007.26 606.18C1007.26 629.31 1007.26 1045.68 1007.26 1068.81C1007.26 1091.95 1032.74 1091.95 1032.74 1091.95L1032.74 1138.21L930.82 1138.21Z" />
		<path id="Column 4" class="shp1" d="M701.5 1138.21L701.5 1091.95C701.5 1091.95 726.98 1091.95 726.98 1068.81C726.98 1045.68 726.98 629.31 726.98 606.18C701.5 606.18 701.5 583.05 701.5 583.05L803.42 583.05C803.42 583.05 803.42 606.18 777.94 606.18C777.94 629.31 777.94 1045.68 777.94 1068.81C777.94 1091.95 803.42 1091.95 803.42 1091.95L803.42 1138.21L701.5 1138.21Z" />
		<path id="Column 3" class="shp1" d="M461.64 1138.21L461.64 1091.95C461.64 1091.95 487.12 1091.95 487.12 1068.81C487.12 1045.68 487.12 629.31 487.12 606.18C461.64 606.18 461.64 583.05 461.64 583.05L563.56 583.05C563.56 583.05 563.56 606.18 538.08 606.18C538.08 629.31 538.08 1045.68 538.08 1068.81C538.08 1091.95 563.56 1091.95 563.56 1091.95L563.56 1138.21L461.64 1138.21Z" />
		<path id="Column 2" class="shp1" d="M247.26 1138.21L247.26 1091.95C247.26 1091.95 272.74 1091.95 272.74 1068.81C272.74 1045.68 272.74 629.31 272.74 606.18C247.26 606.18 247.26 583.05 247.26 583.05L349.18 583.05C349.18 583.05 349.18 606.18 323.7 606.18C323.7 629.31 323.7 1045.68 323.7 1068.81C323.7 1091.95 349.18 1091.95 349.18 1091.95L349.18 1138.21L247.26 1138.21Z" />
		<path id="Column 1" class="shp1" d="M28.48 1138.21L28.48 1091.95C28.48 1091.95 53.96 1091.95 53.96 1068.81C53.96 1045.68 53.96 629.31 53.96 606.18C28.48 606.18 28.48 583.05 28.48 583.05L130.4 583.05C130.4 583.05 130.4 606.18 104.92 606.18C104.92 629.31 104.92 1045.68 104.92 1068.81C104.92 1091.95 130.4 1091.95 130.4 1091.95L130.4 1138.21L28.48 1138.21Z" />
		<path id="Column Base 6" class="shp1" d="M1252.26 1093.96L1252.26 1092.62L1150.43 1092.54L1150.42 1093.88L1252.26 1093.96Z" />
		<path id="Column Base 5" class="shp1" d="M1032.71 1093.96L1032.71 1092.62L930.87 1092.54L930.87 1093.88L1032.71 1093.96Z" />
		<path id="Column Base 4" class="shp1" d="M804.19 1093.96L804.2 1092.62L702.36 1092.54L702.36 1093.88L804.19 1093.96Z" />
		<path id="Column Base 3" class="shp1" d="M563.73 1093.96L563.74 1092.62L461.9 1092.54L461.89 1093.88L563.73 1093.96Z" />
		<path id="Column Base 2" class="shp1" d="M348.66 1093.96L348.67 1092.62L246.83 1092.54L246.82 1093.88L348.66 1093.96Z" />
		<path id="Column Base 1" class="shp1" d="M130.6 1093.96L130.61 1092.62L28.77 1092.54L28.76 1093.88L130.6 1093.96Z" />
	</g>
	<path id="Foundation" class="shp1" d="M3 1138.21L1277 1138.21L1277 1277L3 1277L3 1138.21Z" />
	<g id="Balcony">
		<path id="Balcony Foundation" class="shp1" d="M3 583.05C15.74 559.92 15.74 559.92 3 536.79C28.48 536.79 1240.97 536.79 1277 536.79C1264.26 559.92 1264.26 559.92 1277 583.05C1226.04 583.05 28.48 583.05 3 583.05Z" />
		<path id="Balcony" class="shp1" d="M3 536.79L3 467.39L640 467.39L1277 467.39L1277 536.79L3 536.79Z" />
		<path id="Shape 5" class="shp1" d="M613.86 480.91C604.15 480.91 604.4 524.28 613.86 523.91C623.32 523.54 622.82 480.91 613.86 480.91ZM636.27 480.91C626.56 480.91 626.81 524.28 636.27 523.91C645.73 523.54 645.23 480.91 636.27 480.91ZM658.67 480.91C648.96 480.91 649.21 524.28 658.67 523.91C668.13 523.54 667.63 480.91 658.67 480.91ZM681.07 480.91C671.36 480.91 671.61 524.28 681.07 523.91C690.53 523.54 690.03 480.91 681.07 480.91ZM591.46 480.91C581.75 480.91 582 524.28 591.46 523.91C600.92 523.54 600.42 480.91 591.46 480.91ZM569.06 480.91C559.35 480.91 559.6 524.28 569.06 523.91C578.52 523.54 578.02 480.91 569.06 480.91Z" />
		<path id="Shape 5 copy" class="shp1" d="M852.83 480.91C843.12 480.91 843.37 524.28 852.83 523.91C862.29 523.54 861.79 480.91 852.83 480.91ZM875.23 480.91C865.53 480.91 865.78 524.28 875.23 523.91C884.69 523.54 884.2 480.91 875.23 480.91ZM897.64 480.91C887.93 480.91 888.18 524.28 897.64 523.91C907.1 523.54 906.6 480.91 897.64 480.91ZM920.04 480.91C910.33 480.91 910.58 524.28 920.04 523.91C929.5 523.54 929 480.91 920.04 480.91ZM830.43 480.91C820.72 480.91 820.97 524.28 830.43 523.91C839.89 523.54 839.39 480.91 830.43 480.91ZM808.02 480.91C798.32 480.91 798.57 524.28 808.02 523.91C817.48 523.54 816.99 480.91 808.02 480.91Z" />
		<path id="Shape 5 copy 2" class="shp1" d="M1069.4 480.91C1059.69 480.91 1059.94 524.28 1069.4 523.91C1078.86 523.54 1078.36 480.91 1069.4 480.91ZM1091.8 480.91C1082.09 480.91 1082.34 524.28 1091.8 523.91C1101.26 523.54 1100.76 480.91 1091.8 480.91ZM1114.2 480.91C1104.49 480.91 1104.74 524.28 1114.2 523.91C1123.66 523.54 1123.16 480.91 1114.2 480.91ZM1136.61 480.91C1126.9 480.91 1127.15 524.28 1136.61 523.91C1146.07 523.54 1145.57 480.91 1136.61 480.91ZM1046.99 480.91C1037.28 480.91 1037.53 524.28 1046.99 523.91C1056.45 523.54 1055.95 480.91 1046.99 480.91ZM1024.59 480.91C1014.88 480.91 1015.13 524.28 1024.59 523.91C1034.05 523.54 1033.55 480.91 1024.59 480.91Z" />
		<path id="Shape 5 copy 3" class="shp1" d="M382.36 480.91C372.65 480.91 372.9 524.28 382.36 523.91C391.82 523.54 391.32 480.91 382.36 480.91ZM404.77 480.91C395.06 480.91 395.31 524.28 404.77 523.91C414.22 523.54 413.73 480.91 404.77 480.91ZM427.17 480.91C417.46 480.91 417.71 524.28 427.17 523.91C436.63 523.54 436.13 480.91 427.17 480.91ZM449.57 480.91C439.86 480.91 440.11 524.28 449.57 523.91C459.03 523.54 458.53 480.91 449.57 480.91ZM359.96 480.91C350.25 480.91 350.5 524.28 359.96 523.91C369.42 523.54 368.92 480.91 359.96 480.91ZM337.56 480.91C327.85 480.91 328.1 524.28 337.56 523.91C347.01 523.54 346.52 480.91 337.56 480.91Z" />
		<path id="Shape 5 copy 4" class="shp1" d="M165.8 480.91C156.09 480.91 156.34 524.28 165.8 523.91C175.26 523.54 174.76 480.91 165.8 480.91ZM188.2 480.91C178.49 480.91 178.74 524.28 188.2 523.91C197.66 523.54 197.16 480.91 188.2 480.91ZM210.6 480.91C200.9 480.91 201.14 524.28 210.6 523.91C220.06 523.54 219.57 480.91 210.6 480.91ZM233.01 480.91C223.3 480.91 223.55 524.28 233.01 523.91C242.47 523.54 241.97 480.91 233.01 480.91ZM143.39 480.91C133.69 480.91 133.93 524.28 143.39 523.91C152.85 523.54 152.36 480.91 143.39 480.91ZM120.99 480.91C111.28 480.91 111.53 524.28 120.99 523.91C130.45 523.54 129.95 480.91 120.99 480.91Z" />
	</g>
	<g id="Title">
	</g>
	<g id="Flag">
		<path id="Shape 5 copy 7" class="shp2" d="M643.73 77.38C643.73 80.59 643.73 65.09 643.73 62.4C595.34 50.2 554.12 64.84 554.12 64.84C554.12 64.84 494.38 84.04 465.01 64.84C465.01 67 464.51 74.4 464.51 76.27C489 96.8 554.12 77.37 554.12 77.37C554.12 77.37 613.86 60.83 643.73 77.38Z" />
		<path id="Shape 5 copy 6" class="shp2" d="M569.11 46.59C569.11 49.8 569.06 37.1 569.06 32.99C542.17 39.46 494.38 53.52 464.51 38.5C464.51 41.01 464.51 50.23 464.51 52.41C494.38 67.95 543.17 54.72 569.11 46.59Z" />
		<path id="Shape 5 copy 5" class="shp2" d="M567.56 20.4C567.56 23.64 567.56 8.4 567.56 5.69C539.78 11.92 494.38 26.9 465.01 9.36C465.01 11.9 465.01 21.71 465.01 24.86C494.38 37.1 540.98 26.34 567.56 20.4Z" />
		<path id="Shape 5" class="shp3" d="M643.73 89.58C643.73 76.32 643.73 20.74 643.73 8.81C568.76 -13.05 524.25 36.33 464.51 6.67C464.51 23.05 464.51 75.38 464.51 89.58C524.25 119.54 572.34 64.06 643.73 89.58Z" />
		<path id="Shape 5" class="shp4" d="M643.73 9.36C613.27 2.43 586.48 0.63 568.56 6.64C568.56 33.45 568.56 23.74 569.06 47.09C573.54 45.7 609.38 40.62 643.73 47.09C643.73 31.83 643.73 9.36 643.73 9.36" />
		<path id="Flag Pole" class="shp4" d="M643.73 92.58L643.73 469.82L643.73 92.58Z" />
	</g>
</svg>