<svg version="1.2" baseProfile="tiny-ps" xmlns="http://www.w3.org/2000/svg" viewBox="0 0 1280 1280" width="1280" height="1280">
	<title>judicial</title>
	<style>
		tspan { white-space:pre }
		.shp0 { fill: #000000;stroke: #000000;stroke-width: 3 } 
		.shp1 { fill: #ffffff;stroke: #000000;stroke-width: 3 } 
		.shp2 { fill: #000000 } 
	</style>
	<path id="Black Inners" class="shp0" d="M82.62 523.72L1201.72 523.72L1201.72 1196L82.62 1196L82.62 523.72Z" />
	<path id="Foundation" class="shp1" d="M3 1138.21L1277 1138.21L1277 1277L3 1277L3 1138.21Z" />
	<g id="Columns">
		<path id="Column 8" class="shp1" d="M1148.24 1137.13L1148.24 1089.31C1148.24 1089.31 1172.94 1089.31 1172.94 1065.4C1172.94 1041.5 1172.94 611.16 1172.94 587.25C1148.24 587.25 1148.24 563.34 1148.24 563.34L1247.03 563.34C1247.03 563.34 1247.03 587.25 1222.33 587.25C1222.33 611.16 1222.33 1041.5 1222.33 1065.4C1222.33 1089.31 1247.03 1089.31 1247.03 1089.31L1247.03 1137.13L1148.24 1137.13Z" />
		<path id="Column Base 8" class="shp1" d="M1247.23 1101.43L1247.23 1100.04L1148.52 1099.96L1148.51 1101.34L1247.23 1101.43Z" />
		<path id="Column 7" class="shp1" d="M988.47 1137.13L988.47 1089.31C988.47 1089.31 1013.17 1089.31 1013.17 1065.4C1013.17 1041.5 1013.17 611.16 1013.17 587.25C988.47 587.25 988.47 563.34 988.47 563.34L1087.26 563.34C1087.26 563.34 1087.26 587.25 1062.56 587.25C1062.56 611.16 1062.56 1041.5 1062.56 1065.4C1062.56 1089.31 1087.26 1089.31 1087.26 1089.31L1087.26 1137.13L988.47 1137.13Z" />
		<path id="Column Base 7" class="shp1" d="M1089.43 1101.43L1089.43 1100.04L990.72 1099.96L990.71 1101.34L1089.43 1101.43Z" />
		<path id="Column 6" class="shp1" d="M829.97 1137.13L829.97 1089.31C829.97 1089.31 854.67 1089.31 854.67 1065.4C854.67 1041.5 854.67 611.16 854.67 587.25C829.97 587.25 829.97 563.34 829.97 563.34L928.76 563.34C928.76 563.34 928.76 587.25 904.07 587.25C904.07 611.16 904.07 1041.5 904.07 1065.4C904.07 1089.31 928.76 1089.31 928.76 1089.31L928.76 1137.13L829.97 1137.13Z" />
		<path id="Column Base 6" class="shp1" d="M928.73 1101.43L928.73 1100.04L830.02 1099.96L830.01 1101.34L928.73 1101.43Z" />
		<path id="Column 5" class="shp1" d="M671.39 1137.13L671.39 1089.31C671.39 1089.31 696.08 1089.31 696.08 1065.4C696.08 1041.5 696.08 611.16 696.08 587.25C671.39 587.25 671.39 563.34 671.39 563.34L770.18 563.34C770.18 563.34 770.18 587.25 745.48 587.25C745.48 611.16 745.48 1041.5 745.48 1065.4C745.48 1089.31 770.18 1089.31 770.18 1089.31L770.18 1137.13L671.39 1137.13Z" />
		<path id="Column Base 5" class="shp1" d="M770.93 1101.43L770.93 1100.04L672.22 1099.96L672.21 1101.34L770.93 1101.43Z" />
		<path id="Column 4" class="shp1" d="M512.72 1137.13L512.72 1089.31C512.72 1089.31 537.41 1089.31 537.41 1065.4C537.41 1041.5 537.41 611.16 537.41 587.25C512.72 587.25 512.72 563.34 512.72 563.34L611.51 563.34C611.51 563.34 611.51 587.25 586.81 587.25C586.81 611.16 586.81 1041.5 586.81 1065.4C586.81 1089.31 611.51 1089.31 611.51 1089.31L611.51 1137.13L512.72 1137.13Z" />
		<path id="Column Base 4" class="shp1" d="M611.68 1101.43L611.68 1100.04L512.97 1099.96L512.96 1101.34L611.68 1101.43Z" />
		<path id="Column 3" class="shp1" d="M352.68 1137.13L352.68 1089.31C352.68 1089.31 377.38 1089.31 377.38 1065.4C377.38 1041.5 377.38 611.16 377.38 587.25C352.68 587.25 352.68 563.34 352.68 563.34L451.48 563.34C451.48 563.34 451.48 587.25 426.78 587.25C426.78 611.16 426.78 1041.5 426.78 1065.4C426.78 1089.31 451.48 1089.31 451.48 1089.31L451.48 1137.13L352.68 1137.13Z" />
		<path id="Column Base 3" class="shp1" d="M450.98 1101.43L450.98 1100.04L352.27 1099.96L352.26 1101.34L450.98 1101.43Z" />
		<path id="Column 2" class="shp1" d="M192.74 1137.13L192.74 1089.31C192.74 1089.31 217.44 1089.31 217.44 1065.4C217.44 1041.5 217.44 611.16 217.44 587.25C192.74 587.25 192.74 563.34 192.74 563.34L291.53 563.34C291.53 563.34 291.53 587.25 266.83 587.25C266.83 611.16 266.83 1041.5 266.83 1065.4C266.83 1089.31 291.53 1089.31 291.53 1089.31L291.53 1137.13L192.74 1137.13Z" />
		<path id="Column Base 2" class="shp1" d="M291.73 1101.43L291.73 1100.04L193.02 1099.96L193.01 1101.34L291.73 1101.43Z" />
		<path id="Column 1" class="shp1" d="M34.94 1137.13L34.94 1089.31C34.94 1089.31 59.63 1089.31 59.63 1065.4C59.63 1041.5 59.63 611.16 59.63 587.25C34.94 587.25 34.94 563.34 34.94 563.34L133.73 563.34C133.73 563.34 133.73 587.25 109.03 587.25C109.03 611.16 109.03 1041.5 109.03 1065.4C109.03 1089.31 133.73 1089.31 133.73 1089.31L133.73 1137.13L34.94 1137.13Z" />
		<path id="Column Base 1" class="shp1" d="M133.93 1101.43L133.93 1100.04L35.22 1099.96L35.21 1101.34L133.93 1101.43Z" />
	</g>
	<path id="Triangle Foundation" class="shp1" d="M17.48 562.42L1262.52 562.42L1262.52 485.02L17.48 485.02L17.48 562.42Z" />
	<path id="Shape 7" class="shp1" d="M640 227L1277 459.22L1260.71 485.02L19.29 485.02L3 459.22L640 227Z" />
	<path id="Shape 6" class="shp1" d="M640 263.9L1190.14 459.22L89.86 459.22L640 263.9Z" />
	<g id="People">
		<path id="Right Reader" fill-rule="evenodd" class="shp2" d="M999.85 411.52C999.95 411.78 998.75 409.93 1000.25 407.81C1000.59 407.33 1005.97 401.63 1007.44 399.9C1008.53 398.61 1015.94 398.79 1017.31 400C1018.85 401.36 1021.95 402.63 1023.44 404.6C1025.11 406.82 1024.54 408.13 1024.01 409.72C1023.71 410.59 1022.95 414.42 1022.41 414.9C1022.01 415.25 1021.04 415.43 1020.64 415.78C1020.05 416.3 1019.53 419.51 1019.04 420.37C1018.2 421.85 1016.74 420.64 1016.64 420.72C1015.87 421.41 1015.32 422.55 1014.64 423.54C1014.57 423.66 1014.07 424.3 1014.24 424.6C1015.85 427.44 1017 425.29 1020.24 426.72C1023.04 427.96 1022.92 430.85 1024.64 432.37C1024.82 432.53 1026.94 432.37 1027.04 432.37C1030.25 432.37 1033.53 433.32 1036.64 433.78C1037.4 433.89 1040.64 434.49 1040.64 434.49C1040.64 434.49 1041.11 433.5 1041.84 433.07C1041.99 432.98 1048.6 434.38 1049.43 434.49C1056.56 435.38 1067.63 433.34 1074.23 436.25C1077.3 437.61 1079.2 439.12 1081.03 441.55C1081.88 442.68 1076.29 441.56 1076.83 442.5C1077.23 443.21 1069.45 439.17 1070.03 440.2C1070.87 441.69 1056.06 441.14 1056.43 441.79C1057.65 443.94 1078.66 451.52 1081.03 452.36C1084.44 453.56 1094.96 458.51 1098.62 457.3C1100.86 456.56 1107.21 455.51 1109.66 455.15C1110.79 454.98 1118.7 452.97 1117.66 455.71C1117.98 462.91 1096.73 462.28 1089.67 461.5C1083.81 460.86 1072.21 459.78 1065.83 460.25C1058.43 460.8 1050.05 462.43 1042.64 462.02C1033.41 461.51 1024.23 459.9 1015.04 459.9C1009.81 459.9 1004.22 459.33 999.05 459.9C993.97 460.46 989.42 461.12 986.65 459.9C984.35 458.89 966.54 463.24 963.29 460.37C960.68 458.07 961.93 458.43 961.53 457.27C961.32 456.64 960.95 455.97 960.89 455.29C960.82 454.34 960.94 452.73 960.92 452.36C960.65 448.12 962.11 451.95 959.06 447.9C957.21 445.45 960.47 438.86 961.45 436.6C962.93 433.22 964.27 429.84 967.45 427.43C970.28 425.29 971.05 421.57 971.05 422.31C971.05 422.45 971.26 421.64 971.45 421.07C972.45 418.13 974.46 416.92 976.25 415.07C976.68 414.63 976.94 414.04 977.45 413.66C979.86 411.89 991.99 413.71 994.45 414.25C995.45 413.99 999.75 411.52 999.85 411.52" />
		<path id="Right Talker 2" fill-rule="evenodd" class="shp2" d="M912.51 384.27C912.81 383.88 911.28 384.22 911.02 383.88C910.12 382.71 912.04 378.66 912.36 378.24C912.96 377.47 911.17 374.34 912.16 373.05C916.13 367.88 914.75 363.22 922.95 364.99C926.4 365.74 932.39 373.6 931.13 378.5C930.36 381.52 926.74 382.78 928.94 387.07C932.86 394.72 941.16 394.41 945.31 401.62C947.47 405.37 947.12 413.68 947.71 418.24C948.5 424.45 952.46 436.05 950.9 442.14C949.04 449.41 944.91 452.92 940.72 457.47C940.29 457.93 940.8 458.92 940.52 459.28C939.46 460.66 930.05 459.44 928.34 459.28C923.58 458.84 919.05 460.18 914.36 460.58C909.29 461.02 904.79 459.17 899.79 458.76C897.2 458.55 891.97 461.22 889.4 459.54C888.26 458.8 889.62 448.11 893.2 448.11C893.47 448.11 892.64 448.03 892.4 447.85C891.18 446.95 890.99 445.89 890.6 444.22C889.91 441.24 890.41 437.17 891.2 434.35C893.44 426.35 896.22 418.35 897.99 409.93C898.87 405.7 899.34 398.14 901.38 394.61C902.85 392.05 907.21 392.22 909.37 391.75C910.12 391.59 911 391.75 911.77 391.75C912.15 391.75 912.71 389.37 912.32 389.37C912.05 389.37 911.45 385.65 912.51 384.27Z" />
		<path id="Right Talker 1" fill-rule="evenodd" class="shp2" d="M821.83 363.01C824.17 352.19 832.23 358.05 837.05 359.57C837.28 359.64 838.36 360.4 838.36 360.4C838.36 360.4 837.6 358.95 837.49 358.74C836.36 356.59 835.13 351.56 836.61 348.75C841 340.42 855.4 339.08 860.74 346.67C863.16 350.11 863.02 355.66 861.18 359.15C860.74 359.98 859.11 359.74 858.99 359.98C858.2 361.48 859.43 363.72 858.55 365.39C857.41 367.54 855.48 367.62 855.48 370.8C855.48 371.35 856.65 370.8 857.23 370.8C858.95 370.8 866.4 374.37 866.89 376.21C867.86 379.91 867.85 384.09 868.64 387.85C869.93 393.97 872.53 403.74 873.91 411.56C874.85 416.92 869.52 416.35 866.45 417.8C866.32 417.86 864.33 418.77 864.69 419.47C869.14 427.91 890.75 448.84 880.49 458.57C877.52 461.38 850.98 458.57 848.46 458.57C843.3 458.57 820.91 459.24 816.86 457.32C815.64 456.74 811.24 445.01 810.72 443.18C808.71 436.2 806.08 423.69 809.84 416.56C810.98 414.4 813.65 412.65 814.67 410.73C814.69 410.69 811.37 400.16 811.16 398.67C809.56 387.34 806.13 375.68 812.91 364.98C814.7 362.14 821.54 358.87 821.54 363.01" />
		<path id="Right Warrior" fill-rule="evenodd" class="shp0" d="M726.64 334.77C726.13 330.88 724.35 312.52 724.8 309.65C726.14 301.11 731.17 307.38 733.47 306.23C734.08 305.92 734.14 304.89 734.78 304.65C737.78 303.52 743.61 306.55 745.68 308.86C746.18 309.41 745.12 310.6 745.68 311.07C746.12 311.44 746.89 310.8 747.39 311.07C749.66 312.3 747.03 327.4 747.39 329.93C747.62 331.57 749.83 333.71 750.02 334.77C750.59 337.97 747.95 337.82 748.7 340.99C748.84 341.56 748.98 342.14 749.23 342.67C749.35 342.94 751.15 342.43 751.33 342.67C753.96 346.15 757.04 345.87 761.45 347.83C761.82 348 761.13 350.26 761.45 350.57C761.92 351.03 763.15 349.97 763.42 350.57C763.61 351.03 763.78 352.53 763.68 352.05C763.57 351.57 763.51 350.11 763.68 350.57C764.28 352.25 765.32 355.9 767.09 356.79C767.41 356.95 767 351.16 767.09 350.57C767.15 350.22 767.89 350.82 768.14 350.57C769.09 349.64 768.23 347.51 769.33 346.78C770.9 345.73 773.3 343.88 774.19 342.67C775.97 340.26 772.14 330.9 772.61 326.87C772.73 325.8 774.3 325.5 774.97 324.66C776.04 323.32 774.95 321.56 775.5 320.18C775.71 319.65 776.81 320.59 777.21 320.18C777.49 319.9 776.88 319.21 777.21 318.97C777.89 318.49 779.2 318.31 779.7 318.97C780.48 320.01 781.35 322.89 782.07 323.61C782.44 323.98 784.6 323.76 785.09 323.87C786.06 324.09 784.76 325.93 785.09 326.87C785.48 328.01 786.42 328.99 786.53 330.19C786.69 331.87 787.31 336.68 786.53 338.09C786.11 338.85 783.78 341.09 785.09 342.67C785.88 343.62 789.29 341.55 789.69 344.15C791.61 356.68 789.16 369.34 790.74 382.17C791.28 386.6 794.71 395.85 792.97 401.29C791.6 405.55 791 409.22 791 413.77C791 424.38 791.33 434.87 789.42 445.37C789.18 446.68 789.27 452.34 788.63 453.27C787.63 454.74 784.12 451.86 783.64 452.11C781.91 453.01 783.94 455 782.07 455.53C776.19 457.21 777.25 455.03 775.76 451.85C775.31 450.88 770.43 451.78 769.33 451.58C769.05 451.53 769.33 444.62 769.33 444.21C769.33 438.85 769.33 433.5 769.33 428.15C769.33 421.21 769.33 414.28 769.33 407.34C769.33 405.76 770.27 402.07 769.33 401.02C768.27 399.85 767.11 400.04 769.33 401.02C769.65 401.17 769.68 399.97 769.33 399.97C767.07 399.97 765.04 399.71 762.63 399.71C761.14 399.71 759.54 400.28 758.16 399.71C757.32 399.36 756.84 398.44 756.06 397.97C754.11 396.8 751.51 397.97 749.23 397.97C748.05 397.97 746.66 398.63 745.68 397.97C744.62 397.25 744.65 395.09 742.66 395.76C742.43 395.84 742.99 396.14 743.19 396.28C744.96 397.58 746.7 398.91 748.44 400.23C752.55 403.37 755.43 405.8 758.69 409.98C761.22 413.22 762.16 414.28 763.15 418.4C764.21 422.8 768.14 449.88 764.73 455.01C763.06 457.51 751.08 455.01 749.49 453.27C748.41 452.07 746.2 441.86 745.68 440.26C745.02 438.18 742.32 436.99 742.14 434.99C742.03 433.84 743.71 428.41 743.71 428.41C743.71 428.41 743.67 429.24 743.45 429.57C742.53 430.92 740.08 432.86 737.8 433.15C732.9 433.76 728.14 431.4 724.01 429.57C722.85 429.05 723.1 427.01 722.04 426.3C721.36 425.85 720.22 425.97 719.81 425.25C719.57 424.83 719.55 420.95 719.55 421.67C719.55 431.2 713.84 437.97 716.13 447.63C717.15 451.91 723.22 448.83 723.22 453.27C723.22 456.98 710.78 456.65 708.51 455.8C708.22 455.68 707.89 455.54 707.72 455.27C707.23 454.44 708.15 452.72 707.72 451.85C706.25 448.78 704.35 447.85 703.52 443.95C701.19 432.92 701.51 421.98 699.58 411.82C698.84 407.91 697.05 401.94 698.4 397.97C699.56 394.56 701.14 390.31 703.52 387.59C704.41 386.58 706.92 386.8 707.99 386.8C708.71 386.8 710.28 388.03 710.09 387.33C708.9 382.95 707.46 378.64 706.28 374.27C705.99 373.21 706.73 370.8 706.28 369.95C705.52 368.52 703.85 367.75 703 366.37C702.45 365.49 702.46 364.37 702.21 363.37C701.36 360.07 701.42 357.29 701.42 353.89C701.42 353.45 701.11 354.9 701.42 355.21C701.68 355.46 701.63 354.51 701.68 354.15C702.35 349.43 702.43 344.91 703.26 340.2C703.61 338.2 709.94 337.91 711.4 337.83C717.42 337.46 727.95 339.17 727.95 331.24" />
		<path id="King" fill-rule="evenodd" class="shp0" d="M593.67 386.68C589.78 367.44 600.91 370.01 600.91 358.37C600.91 352.33 602.59 335.08 611.05 331.86C612.45 331.32 624.8 330.42 624.8 330.42C624.8 330.42 627.67 310.31 627.33 309.64C623.83 302.7 629.87 294.51 629.87 285.63C629.87 283.59 632.34 291.66 633.85 290.29C634.72 289.49 639.9 284.19 641.45 284.19C643.99 284.19 643.95 288.59 645.43 290.64C647.03 292.86 650.97 285.88 653.39 288.64C657.17 292.94 649.61 318.79 653.75 322.9C654.21 323.35 654.27 327.96 655.92 330.42C658.85 334.76 669.85 334.86 674.38 340.1C680.47 347.13 685.65 375.13 684.52 385.25C683.78 391.82 675.64 397.97 670.04 392.42C668.88 391.27 672.46 390.06 674.02 389.55C675.87 388.94 668.59 389.77 668.59 391.7C668.59 396.16 672.25 400.63 674.02 403.31C684.68 419.49 678.24 439.71 685.24 456.35C686.03 458.21 687.34 455.41 683.07 456.35C675.12 458.1 679.09 460 676.56 456.35C668.95 456.35 636.78 458.2 625.52 457.64C622.2 457.47 609.81 459.35 607.79 455.85C601.57 445.07 608.58 435.16 607.06 424.67C606.09 417.93 599.6 415 598.02 408.19C597.67 406.69 593.95 388.05 593.67 386.68Z" />
		<path id="Left Warrior" fill-rule="evenodd" class="shp0" d="M532 320.88C529.67 313.92 533.21 305.06 540.39 302.31C542.47 301.51 546.02 301.33 548.23 301.77C550.04 302.13 550.74 302.99 551.48 304.46C551.53 304.58 551.72 304.86 551.75 304.73C552.01 303.68 551.91 302.12 553.91 303.12C556.38 304.35 554.93 308.7 555.26 310.65C555.5 312.05 556.91 312.12 557.15 313.35C557.58 315.45 556.32 315.31 555.8 316.85C554.62 320.37 556.25 324.57 555.8 328.15C555.49 330.66 552.66 337.18 554.18 339.46C554.23 339.54 555.97 339.09 556.34 339.19C558.39 339.7 560.01 340.96 562.29 341.34C564.42 341.69 566.81 340.04 568.78 340.53C572.64 341.49 577.18 344.85 579.87 347.53C579.95 347.61 580.47 352.01 580.41 352.11C579.67 353.34 578.62 351.2 579.06 350.76C579.69 350.14 579.87 357.96 579.87 358.57C579.87 359.64 579.87 360.72 579.87 361.8C579.87 368.61 580.44 375.96 578.79 382.52C578.03 385.53 574.34 386.64 573.38 389.52C572.85 391.1 576.79 391.08 577.98 391.68C580.76 393.06 583.82 396.01 584.47 399.21C586.03 406.97 583.71 434.17 582.3 442.55C581.51 447.3 582.7 452.07 577.98 455.2C574.72 457.36 568.43 455.54 564.73 456.28C564.22 456.38 563.93 456.84 563.64 456.28C561.93 452.86 566.1 453.75 566.62 451.16C568.09 443.86 567.21 435.26 564.73 428.55C563.51 425.25 563.82 419.87 564.19 416.44C564.36 414.84 564.74 412.62 565.27 411.06C565.36 410.79 565.57 409.97 565.54 410.25C564.86 417.01 565.44 430.36 557.7 433.67C554.75 434.92 551.05 436.33 547.69 435.82C547.48 435.79 541.74 432.05 541.74 432.05C541.74 432.05 543.16 434.88 542.55 436.09C542.26 436.68 539.8 439.45 539.85 439.59C540.22 440.71 549.86 455.06 546.34 456.81C545.17 457.4 543.06 456.42 542.01 456.28C539.6 455.96 534.61 457.57 532.55 456.55C531.45 456 531.54 454.24 530.92 453.32C529.09 450.57 525.23 450.6 523.08 446.32C521.52 443.21 519.91 439.46 520.65 435.82C520.73 435.42 522.64 429.33 520.92 429.9C518.79 430.6 520.56 438.38 520.65 439.86C520.9 444.43 522.91 450.44 522.27 454.93C522.23 455.21 522.25 455.61 522 455.74C520.88 456.3 518.42 455.62 517.13 455.74C515.88 455.85 514.87 457.08 513.62 457.08C496.15 457.08 495.64 438.09 494.96 424.51C494.66 418.73 493.66 416.31 494.41 411.06C495.06 406.57 493.29 401.58 494.14 397.33C494.6 395.06 503.18 394.05 499.55 386.83C499.34 386.42 499.14 380.34 499.28 380.37C499.64 380.44 500.29 380.72 500.36 380.37C501.04 377.01 498.47 365.96 498.47 361.26C498.47 358.78 499.66 352.92 498.2 350.49C498.11 350.34 497.83 350.44 497.66 350.49C495.98 351.01 485.89 355.02 486.57 351.3C486.74 350.4 486.96 349.51 487.11 348.61C487.3 347.5 493.86 344.84 494.96 344.84C495.87 344.84 494.35 343.06 494.41 342.15C494.58 339.85 495.38 337.34 496.04 335.15C496.63 333.17 500.88 320.99 501.72 320.35C502.68 319.6 507.23 318.54 507.94 319.81C509.66 322.89 509.3 325.24 510.1 328.42C510.3 329.23 515.1 330.26 513.62 332.73C513.49 332.94 511.01 333.45 510.91 333.53C510.08 334.19 511.25 338.18 511.18 338.65C511.12 339.05 510.89 339.41 510.64 339.73C510.41 340.01 509.56 339.62 509.56 339.99C509.56 342.13 508.63 344.77 508.75 344.84C509.68 345.4 510.96 344.77 511.99 345.11C514.04 345.79 518.32 348.45 519.02 349.15C519.34 349.46 519.02 350.04 519.02 350.49C519.02 355.92 512.32 345.72 512.8 352.91C512.99 355.69 511.5 357.96 511.18 360.72C510.25 368.73 511.17 377.44 511.45 385.48C511.48 386.2 511.22 392.67 512.26 393.02C512.65 393.15 512.5 392.21 512.8 391.94C514.55 390.46 514.71 392.61 516.32 392.21C517.45 391.93 517.73 390.44 518.75 390.06C519.06 389.95 519.32 390.39 519.56 390.6C522.38 393.05 525.38 395.03 529.3 394.64C529.73 394.59 531.6 394.51 531.19 393.29C530.82 392.18 529.79 391.39 529.3 390.33C527.2 385.72 527.63 379.64 526.33 374.72C525.92 373.2 526.55 371.01 525.24 370.14C524.72 369.79 523.72 369.63 523.35 370.14C522.6 371.19 522.93 372.68 522.54 373.91C522.05 375.46 520.5 376.2 519.56 377.41C519.09 378.02 513.49 387.71 512.26 382.52C512.01 381.47 512.08 380.37 511.99 379.29C511.81 377.14 511.61 374.99 511.45 372.83C511.01 366.95 510.45 357.82 513.34 352.38C513.61 351.87 514.41 351.93 514.97 351.84C515.5 351.75 516.08 352.01 516.59 351.84C518.05 351.35 518.38 350.46 519.29 349.42C519.51 349.17 519.57 348.8 519.84 348.61C522.86 346.45 525.66 345.02 529.03 343.49C530.58 342.79 533.15 324.32 532 320.88Z" />
		<path id="Left Talker 2" fill-rule="evenodd" class="shp2" d="M430.51 363.42C430.51 360.22 425.03 351.29 428.27 347.61C429.28 346.46 429.8 344.57 431.2 343.51C434.35 341.12 443.66 340.69 446.17 344.48C448.44 347.91 448.12 357.66 450.3 359.51C451.55 360.58 468.3 362.56 468.71 361.86C468.74 361.8 468.72 361.99 468.71 362.05C468.52 363.55 469.46 363.94 470.6 365.56C472.67 368.5 474.72 371.89 475.93 375.32C477.53 379.85 479.81 393.17 479.2 397.96C478.91 400.28 473.21 411.89 473.7 412.99C478.19 423.18 478.17 432.71 478.17 444.22C478.17 445.89 478.93 454.88 477.66 456.33C477.21 456.83 471.78 456.2 470.94 456.33C465.62 457.15 460.37 458.01 454.94 457.5C451.35 457.16 448.11 455.94 444.45 455.94C439.9 455.94 435.69 457.27 431.2 457.69C426.39 458.15 422.11 456.77 417.43 456.33C415.63 456.16 412.83 456.81 411.41 455.74C410.97 455.4 412.18 453.34 411.76 452.62C408.1 446.39 410.49 436.29 411.76 428.61C412.72 422.78 411.69 404.04 417.95 401.67C418.57 401.44 419.6 402 420.19 401.67C420.67 401.4 419.72 400.53 419.67 399.92C419.54 398.31 419.76 396.81 420.02 395.23C420.51 392.17 421.13 381.67 421.56 382.15C422.06 382.71 421.29 380.6 421.22 379.81C421.12 378.73 420.79 376.1 421.22 375.13C423.49 369.97 430.58 368.52 431.89 365.56C432.29 364.64 428.77 364.62 430.17 361.46" />
		<path id="Left Talker 1" fill-rule="evenodd" class="shp2" d="M353.41 381.31C360.12 381.31 368.88 377.96 375.42 376.72C375.45 376.72 375.42 375.39 375.42 375.26C375.42 371.16 373.62 370 373.95 365.85C374.09 364.08 374.22 363.98 375.42 363.16C375.89 362.84 375.1 360.22 375.42 359.61C375.8 358.88 376.32 358.24 376.7 357.5C377.93 355.13 387.49 353.84 390.09 355.02C391.02 355.45 391.45 356.4 392.11 357.5C392.18 357.63 394.81 358.97 395.41 361.7C395.94 364.13 394.65 366.34 395.04 368.58C395.29 369.99 398.48 372.12 397.01 374.2C396.59 374.59 395.6 374.17 395.36 374.73C394.9 377.44 396.39 381 395.59 384.65C395.12 386.81 389.74 384.64 388.62 385.49C388.24 385.77 386.13 389.33 386.05 389.24C385.93 389.1 385.93 389.1 386.05 389.24C386.52 389.78 389.32 388.44 390.09 388.62C391.92 389.03 394.1 389.94 396.14 390.89C396.74 391.17 398.81 390.38 399.26 390.89C402.97 395.2 402.56 403.58 402.56 409.27C402.56 410.44 401.83 415.93 401.83 415.93C401.83 415.93 402.44 425.68 402.38 426.18C402.06 428.7 399.62 431.72 399.62 433.9C399.62 440.05 401.83 445.95 401.83 452.26C401.83 452.76 401.09 450.51 401.09 451.01C401.09 452.34 401.43 454.4 400.73 455.6C400.32 456.29 394.25 457.29 393.21 457.66C383.74 461.1 374.69 459.61 364.96 460.4C354.83 461.22 344.74 459.77 335.8 459.77C333.75 459.77 332.27 458.83 334.05 453.77C335.53 449.55 336.14 453.18 338.73 450.17C341.1 447.44 333.33 441.98 332.32 440.97C330.43 439.09 331.4 433.36 331.4 430.77C331.4 429.13 333.83 421.38 335.8 421.38C336.11 421.38 338.09 414.79 337.63 412.19C337.62 412.13 337.59 412.03 337.63 411.99C339.49 410.23 340.48 406.13 341.3 403.22C345.54 388.14 348.75 380.48 362.94 380.48" />
		<path id="Left Reader" fill-rule="evenodd" class="shp2" d="M274.37 419.77C274.37 417.19 271.6 415.85 270.27 414.74C270.09 414.59 269.61 414.98 269.56 414.74C269.36 413.72 269.94 412.27 269.56 411.32C268.5 408.63 262.03 406.45 264.19 401.29C266.8 395.01 275.44 393.08 281.45 396.13C282.4 396.61 283.87 399.54 284.7 400.41C287.2 403 286.1 408.49 288.52 410.6C291.41 413.11 300.53 410.95 304.23 411.89C309.79 413.3 313.05 420.68 316.82 424.5C317.16 424.84 316.56 426.09 316.82 426.51C318.95 429.89 321.93 433.53 323.9 436.97C324.24 437.57 324.58 445.24 324.61 445.28C327.01 449.13 325.17 458.28 325.17 459.32C325.17 459.55 325.32 460.32 325.03 460.47C324.32 460.83 309.4 459.75 307.34 459.75C282.63 459.75 257.2 459.96 232.63 459.18C226.63 458.99 221.03 460.94 215.09 460.61C205.2 460.08 195.25 459.04 185.37 459.04C184.98 459.04 176.89 459.52 176.74 458.89C176.43 457.65 182.05 457.92 182.4 457.73C182.89 457.46 183.55 455.26 185.8 454.88C187.63 454.57 188.73 457.1 189.47 457.73C189.73 457.95 190.13 457.73 190.46 457.73C190.67 457.73 200.7 453.59 202.21 453.16C202.68 453.03 203.22 453.02 203.62 452.73C209.41 448.63 216.07 442.21 223.01 438.26C227.58 435.65 232.2 436.19 234.9 432.1C235.5 431.17 232.38 431.67 231.92 430.66C231.46 429.63 231.87 429.07 232.77 429.07C232.91 429.07 233.23 429.21 233.2 429.07C232.94 427.8 231.92 427.63 231.92 426.22C231.92 425.74 231.46 424.85 231.92 424.79C232.59 424.69 233.6 425.83 233.9 425.22C234.36 424.3 232.39 423.04 233.48 421.91C234.39 420.96 236.69 422.64 236.88 422.64C237.64 422.64 236.59 420.63 237.3 420.35C239.41 419.49 239.03 423.21 240.56 423.21C240.83 423.21 240.95 421.37 242.11 421.91C246.14 423.76 251.82 432.72 257.11 431.38C260.49 430.52 261.88 422.81 265.74 420.2C267.75 418.85 270.56 420.2 272.82 420.49C273.74 420.6 275.04 422.83 275.22 421.91C275.52 420.45 274.37 419.68 274.37 418.34" />
	</g>
</svg>