<svg version="1.2" baseProfile="tiny-ps" xmlns="http://www.w3.org/2000/svg" viewBox="0 0 1280 1280" width="1280" height="1280">
	<title>legislative</title>
	<style>
		tspan { white-space:pre }
		.shp0 { fill: #000000;stroke: #000000;stroke-width: 3 } 
		.shp1 { fill: #ffffff;stroke: #000000;stroke-width: 3 } 
	</style>
	<path id="Shape 5" class="shp0" d="M28 472.43L1248 472.43L1248 1189L28 1189L28 472.43Z" />
	<path id="Foundation" class="shp1" d="M3 1138.21L1277 1138.21L1277 1277L3 1277L3 1138.21Z" />
	<path id="Statue" fill-rule="evenodd" class="shp0" d="M577.13 473.26C577.13 445.26 602.9 438.84 609.57 419.23C614.56 404.53 599.29 384.34 605.45 372.27C608.93 365.43 616.73 357.16 621.41 352.57C624.59 349.45 606.56 318.65 604.93 310.66C603.79 305.05 602.44 296.22 603.91 290.46C604.63 287.62 610.24 286.47 611.11 283.9C616.56 267.87 610.15 248.8 623.47 231.38C625.31 228.97 630.05 230.93 632.22 229.87C632.69 229.64 630.76 223.14 631.19 222.29C632.47 219.79 638.4 220.55 638.4 217.75C638.4 212.78 620.6 210.12 634.8 206.64C636.52 206.22 638.59 205.77 640.46 206.14C647.83 207.58 668.08 221.64 663.11 231.38C661.27 235.01 648.92 222.37 647.15 225.83C643.65 232.7 666.16 250 667.23 263.7C668 273.53 668.78 284.22 668.78 294C668.78 295.01 669.81 297.03 668.78 297.03C667.39 297.03 667.23 293.49 667.23 293.49C667.23 293.49 665.45 296.66 665.17 297.03C657.28 307.35 661.06 323.8 666.2 333.89C667.6 336.62 653.18 345.7 653.33 346.01C657.63 354.45 674.45 367.8 675.99 378.33C679.17 400.22 658.05 406.55 679.07 433.37C683.08 438.47 713.67 465.58 703.79 475.28C702.94 476.1 692.7 468.81 690.4 468.21C680.53 465.62 670.23 464.01 660.02 463.66C643.49 463.1 579.06 476.75 574.56 475.28C570.08 473.81 583.91 462.15 579.19 462.15" />
	<g id="Top of Dome">
		<path id="Top" class="shp1" d="M580.21 497.54C491.62 441.59 786.92 441.59 698.33 497.54C698.33 516.19 698.33 623.88 698.33 623.88L580.21 623.88L580.21 551.63C580.21 551.63 580.21 516.19 580.21 497.54Z" />
		<path id="Middle" class="shp1" d="M545.95 613.05C545.95 554.53 732.59 554.53 732.59 613.05C732.59 646.43 732.59 671.56 732.59 671.56L545.95 671.56C545.95 671.56 545.95 671.56 545.95 613.05Z" />
		<path id="Bottom" class="shp1" d="M436.6 655.72C436.6 596.4 841.95 596.4 841.95 655.72C841.95 689.56 841.95 715.03 841.95 715.03L436.6 715.03C436.6 715.03 436.6 715.03 436.6 655.72Z" />
	</g>
	<g id="Dome">
		<path id="Shape 1" class="shp1" d="M56.03 1135.71C172.68 490.66 1105.86 490.66 1222.51 1135.71C1132.78 1135.71 145.76 1135.71 56.03 1135.71Z" />
		<path id="Shape 1 copy 2" class="shp1" d="M130.4 1135.71C232.46 490.66 1049 490.66 1151.06 1135.71C1072.55 1135.71 208.91 1135.71 130.4 1135.71Z" />
		<path id="Shape 1 copy 3" class="shp1" d="M247.04 1135.71C325.63 490.66 954.37 490.66 1032.96 1135.71C972.5 1135.71 307.5 1135.71 247.04 1135.71Z" />
		<path id="Shape 1 copy 4" class="shp1" d="M392.85 1135.71C442.57 490.66 840.34 490.66 890.06 1135.71C851.82 1135.71 431.1 1135.71 392.85 1135.71Z" />
		<path id="Shape 1 copy 5" class="shp1" d="M551.79 1135.71C569.28 490.66 709.26 490.66 726.76 1135.71C713.3 1135.71 565.24 1135.71 551.79 1135.71Z" />
	</g>
</svg>